<svg width="20" height="20" viewBox="0 0 20 20" fill="none" xmlns="http://www.w3.org/2000/svg">
<g clip-path="url(#clip0_529_2721)">
<mask id="mask0_529_2721" style="mask-type:luminance" maskUnits="userSpaceOnUse" x="0" y="0" width="20" height="20">
<path fill-rule="evenodd" clip-rule="evenodd" d="M0 0H20V20H0V0L0 0Z" fill="white"/>
</mask>
<g mask="url(#mask0_529_2721)">
<path fill-rule="evenodd" clip-rule="evenodd" d="M12.2078 3.95378C12.8512 3.17017 13.285 2.08323 13.1673 1C12.2412 1.03792 11.1181 1.6193 10.4533 2.40217C9.85729 3.09508 9.33609 4.20061 9.47602 5.26227C10.5095 5.34554 11.5645 4.73665 12.2078 3.95378M14.528 10.8301C14.5058 8.48743 16.4292 7.36331 16.5166 7.30755C15.4342 5.71654 13.7485 5.50019 13.1488 5.47417C11.7133 5.3292 10.3481 6.32246 9.62111 6.32246C8.89485 6.32246 7.77177 5.49573 6.58057 5.51804C5.01773 5.54034 3.57631 6.43027 2.77083 7.8369C1.14728 10.6673 2.35476 14.8619 3.93833 17.1577C4.71197 18.2826 5.63443 19.5435 6.84635 19.4989C8.01237 19.4513 8.45361 18.742 9.86468 18.742C11.2735 18.742 11.6704 19.4989 12.9045 19.4743C14.1601 19.4513 14.9552 18.3301 15.7251 17.203C16.6121 15.8998 16.9778 14.6381 17 14.5712C16.9726 14.5585 14.5525 13.6285 14.528 10.8301" fill="#341C67"/>
</g>
</g>
<defs>
<clipPath id="clip0_529_2721">
<rect width="20" height="20" fill="white"/>
</clipPath>
</defs>
</svg>
