<svg width="20" height="20" viewBox="0 0 20 20" fill="none" xmlns="http://www.w3.org/2000/svg">
<g clip-path="url(#clip0_529_2709)">
<path d="M9.99295 19.9859C15.5119 19.9859 19.9859 15.5119 19.9859 9.99295C19.9859 4.474 15.5119 0 9.99295 0C4.474 0 0 4.474 0 9.99295C0 15.5119 4.474 19.9859 9.99295 19.9859Z" fill="#7D2AE7"/>
<path d="M9.99295 19.9859C15.5119 19.9859 19.9859 15.5119 19.9859 9.99295C19.9859 4.474 15.5119 0 9.99295 0C4.474 0 0 4.474 0 9.99295C0 15.5119 4.474 19.9859 9.99295 19.9859Z" fill="url(#paint0_radial_529_2709)"/>
<path d="M9.99295 19.9859C15.5119 19.9859 19.9859 15.5119 19.9859 9.99295C19.9859 4.474 15.5119 0 9.99295 0C4.474 0 0 4.474 0 9.99295C0 15.5119 4.474 19.9859 9.99295 19.9859Z" fill="url(#paint1_radial_529_2709)"/>
<path d="M9.99295 19.9859C15.5119 19.9859 19.9859 15.5119 19.9859 9.99295C19.9859 4.474 15.5119 0 9.99295 0C4.474 0 0 4.474 0 9.99295C0 15.5119 4.474 19.9859 9.99295 19.9859Z" fill="url(#paint2_radial_529_2709)"/>
<path d="M9.99295 19.9859C15.5119 19.9859 19.9859 15.5119 19.9859 9.99295C19.9859 4.474 15.5119 0 9.99295 0C4.474 0 0 4.474 0 9.99295C0 15.5119 4.474 19.9859 9.99295 19.9859Z" fill="#341C67"/>
<path d="M17.5884 10.8994C17.5622 10.8994 17.5384 10.9163 17.526 10.9518C17.3681 11.4024 17.1548 11.6704 16.9791 11.6704C16.8782 11.6704 16.8374 11.558 16.8374 11.3816C16.8374 10.9403 17.1016 10.0044 17.2348 9.57766C17.2503 9.52601 17.2603 9.47983 17.2603 9.44054C17.2603 9.31652 17.1925 9.25565 17.0246 9.25565C16.8435 9.25565 16.6487 9.32652 16.4592 9.65853C16.3937 9.36581 16.1958 9.23794 15.9193 9.23794C15.5996 9.23794 15.2907 9.44361 15.0365 9.77715C14.7824 10.1107 14.4835 10.2201 14.2586 10.1661C14.4203 9.77018 14.4804 9.47439 14.4804 9.25491C14.4804 8.91057 14.3102 8.70262 14.0352 8.70262C13.6169 8.70262 13.3759 9.1016 13.3759 9.5214C13.3759 9.84569 13.523 10.1792 13.8465 10.341C13.5754 10.9541 13.1795 11.5087 13.0293 11.5087C12.8352 11.5087 12.7781 10.559 12.7889 9.87955C12.7958 9.48979 12.8282 9.46979 12.8282 9.35195C12.8282 9.28416 12.7843 9.23794 12.6079 9.23794C12.1966 9.23794 12.0695 9.58613 12.0502 9.98589C12.044 10.1378 12.0202 10.2885 11.9794 10.4349C11.8076 11.0481 11.4533 11.5133 11.2222 11.5133C11.1151 11.5133 11.0859 11.4062 11.0859 11.266C11.0859 10.8247 11.3331 10.2732 11.3331 9.80254C11.3331 9.45672 11.1814 9.23798 10.8956 9.23798C10.559 9.23798 10.1138 9.63849 9.69249 10.3887C9.83111 9.81412 9.88816 9.25798 9.47757 9.25798C9.3885 9.25931 9.30105 9.28203 9.22261 9.32424C9.19631 9.3366 9.17433 9.35656 9.1595 9.38155C9.14467 9.40653 9.13767 9.43539 9.13942 9.46439C9.17871 10.076 8.64646 11.6427 8.14194 11.6427C8.05028 11.6427 8.0056 11.5433 8.0056 11.3831C8.0056 10.941 8.26902 10.0074 8.4015 9.57994C8.41843 9.52447 8.42772 9.47672 8.42772 9.43514C8.42772 9.31806 8.35528 9.25798 8.19123 9.25798C8.01099 9.25798 7.81536 9.32652 7.62666 9.65853C7.5604 9.36581 7.36245 9.23794 7.08591 9.23794C6.63225 9.23794 6.1254 9.71786 5.9028 10.3433C5.60469 11.1783 5.0039 11.9847 4.19513 11.9847C3.46107 11.9847 3.07363 11.3739 3.07363 10.4087C3.07363 9.01534 4.09654 7.87691 4.85524 7.87691C5.21804 7.87691 5.39135 8.10798 5.39135 8.46231C5.39135 8.89132 5.15178 9.09081 5.15178 9.25412C5.15178 9.3042 5.19339 9.35349 5.27579 9.35349C5.60548 9.35349 5.99367 8.96605 5.99367 8.43766C5.99367 7.90924 5.56465 7.52258 4.80595 7.52258C3.55198 7.52258 2.29028 8.78428 2.29028 10.401C2.29028 11.6874 2.92497 12.463 4.02257 12.463C4.77127 12.463 5.42524 11.8807 5.778 11.2013C5.81808 11.7644 6.07379 12.0586 6.46355 12.0586C6.81016 12.0586 7.09052 11.8522 7.30465 11.4894C7.38709 11.8692 7.60583 12.0548 7.89009 12.0548C8.21587 12.0548 8.48855 11.8484 8.74812 11.4648C8.7443 11.766 8.81284 12.0494 9.07394 12.0494C9.19717 12.0494 9.3443 12.0209 9.37052 11.9131C9.64548 10.7762 10.3248 9.84798 10.5328 9.84798C10.5945 9.84798 10.6114 9.90731 10.6114 9.97739C10.6114 10.2863 10.3934 10.9194 10.3934 11.3238C10.3934 11.7605 10.5791 12.0494 10.9626 12.0494C11.3878 12.0494 11.8199 11.5287 12.108 10.7677C12.1982 11.4786 12.393 12.0525 12.698 12.0525C13.0724 12.0525 13.7371 11.2645 14.14 10.4303C14.2978 10.4503 14.5351 10.4449 14.7631 10.284C14.666 10.5297 14.6091 10.7985 14.6091 11.0673C14.6091 11.8414 14.9787 12.0586 15.2969 12.0586C15.6427 12.0586 15.9231 11.8522 16.138 11.4894C16.2089 11.8168 16.3899 12.054 16.7226 12.054C17.2433 12.054 17.6955 11.5218 17.6955 11.085C17.6955 10.9695 17.6462 10.8994 17.5884 10.8994ZM6.78091 11.6296C6.5706 11.6296 6.4882 11.4178 6.4882 11.102C6.4882 10.5536 6.86331 9.6377 7.26001 9.6377C7.43331 9.6377 7.49879 9.84183 7.49879 10.0914C7.49879 10.6483 7.14217 11.6296 6.78091 11.6296ZM13.9836 9.99282C13.858 9.84337 13.8126 9.64002 13.8126 9.459C13.8126 9.23565 13.8943 9.04691 13.9921 9.04691C14.0899 9.04691 14.1199 9.14321 14.1199 9.27723C14.1199 9.50136 14.0398 9.82872 13.9836 9.99282ZM15.6142 11.6296C15.404 11.6296 15.3215 11.3862 15.3215 11.102C15.3215 10.5728 15.6967 9.6377 16.0964 9.6377C16.2697 9.6377 16.3313 9.8403 16.3313 10.0914C16.3313 10.6483 15.9809 11.6296 15.6142 11.6296Z" fill="white"/>
</g>
<defs>
<radialGradient id="paint0_radial_529_2709" cx="0" cy="0" r="1" gradientUnits="userSpaceOnUse" gradientTransform="translate(3.8547 17.7139) rotate(-49.416) scale(15.4574)">
<stop stop-color="#6420FF"/>
<stop offset="1" stop-color="#6420FF" stop-opacity="0"/>
</radialGradient>
<radialGradient id="paint1_radial_529_2709" cx="0" cy="0" r="1" gradientUnits="userSpaceOnUse" gradientTransform="translate(5.29097 2.27204) rotate(54.703) scale(17.4311)">
<stop stop-color="#00C4CC"/>
<stop offset="1" stop-color="#00C4CC" stop-opacity="0"/>
</radialGradient>
<radialGradient id="paint2_radial_529_2709" cx="0" cy="0" r="1" gradientUnits="userSpaceOnUse" gradientTransform="translate(3.86044 17.7138) rotate(-45.1954) scale(15.2703 7.023)">
<stop stop-color="#6420FF"/>
<stop offset="1" stop-color="#6420FF" stop-opacity="0"/>
</radialGradient>
<clipPath id="clip0_529_2709">
<rect width="20" height="20" fill="white"/>
</clipPath>
</defs>
</svg>
