<svg width="20" height="20" viewBox="0 0 20 20" fill="none" xmlns="http://www.w3.org/2000/svg">
<path d="M7.37524 13.3333H9.75024V15.6663C9.75024 16.9473 8.6926 18.0002 7.37524 18.0002C6.05808 18 5.00122 16.9472 5.00122 15.6663C5.0014 14.3854 6.05819 13.3335 7.37524 13.3333Z" stroke="#341C67"/>
<path d="M7.37524 7.66675H9.75024V12.3337H7.37524C6.05808 12.3335 5.00122 11.2807 5.00122 9.99976C5.0014 8.71894 6.05819 7.66696 7.37524 7.66675Z" stroke="#341C67"/>
<path d="M7.375 2H9.75V6.66699H7.375C6.05783 6.66678 5.00098 5.61397 5.00098 4.33301C5.00116 3.05219 6.05795 2.00022 7.375 2Z" stroke="#341C67"/>
<path d="M13.124 2C14.4413 2 15.4988 3.05206 15.499 4.33301C15.499 5.6141 14.4414 6.66699 13.124 6.66699H10.75V2H13.124Z" stroke="#341C67"/>
<path d="M13.124 7.66675C14.4413 7.66675 15.4988 8.71881 15.499 9.99976C15.499 11.2809 14.4414 12.3337 13.124 12.3337C11.8069 12.3335 10.75 11.2807 10.75 9.99976C10.7502 8.71894 11.807 7.66696 13.124 7.66675Z" stroke="#341C67"/>
</svg>
