<svg width="20" height="20" viewBox="0 0 20 20" fill="none" xmlns="http://www.w3.org/2000/svg">
<path d="M13.691 12.671H12C12.0167 13.117 12.1127 13.4902 12.2881 13.7904C12.4718 14.0821 12.7015 14.318 12.977 14.4982C13.261 14.6783 13.5825 14.807 13.9415 14.8842C14.3006 14.9614 14.6681 15 15.0438 15C15.4113 15 15.7704 14.9614 16.1211 14.8842C16.4802 14.8156 16.7975 14.6912 17.0731 14.511C17.3486 14.3309 17.5699 14.095 17.737 13.8033C17.9123 13.5031 18 13.1342 18 12.6967C18 12.3879 17.9415 12.1305 17.8246 11.9246C17.7077 11.7102 17.5532 11.5343 17.3612 11.3971C17.1691 11.2512 16.9478 11.1354 16.6973 11.0496C16.4551 10.9638 16.2046 10.8909 15.9457 10.8309C15.6952 10.7708 15.4489 10.7151 15.2067 10.6636C14.9645 10.6121 14.7474 10.5564 14.5553 10.4963C14.3716 10.4277 14.2213 10.3419 14.1044 10.239C13.9875 10.136 13.929 10.0031 13.929 9.84007C13.929 9.70282 13.9624 9.59559 14.0292 9.51838C14.096 9.4326 14.1754 9.36826 14.2672 9.32537C14.3674 9.28247 14.476 9.25674 14.5929 9.24816C14.7098 9.231 14.8184 9.22243 14.9186 9.22243C15.2359 9.22243 15.5115 9.28676 15.7453 9.41544C15.9791 9.53554 16.1086 9.77145 16.1336 10.1232H17.8246C17.7912 9.7114 17.6868 9.37255 17.5115 9.10662C17.3445 8.83211 17.1315 8.61336 16.8727 8.45037C16.6138 8.28738 16.3173 8.17157 15.9833 8.10294C15.6576 8.03431 15.3194 8 14.9687 8C14.618 8 14.2756 8.03431 13.9415 8.10294C13.6075 8.16299 13.3069 8.27451 13.0397 8.4375C12.7724 8.59191 12.5553 8.80637 12.3883 9.08088C12.2296 9.35539 12.1503 9.70711 12.1503 10.136C12.1503 10.4277 12.2088 10.6765 12.3257 10.8824C12.4426 11.0797 12.5971 11.2469 12.7891 11.3842C12.9812 11.5129 13.1983 11.6201 13.4405 11.7059C13.691 11.7831 13.9457 11.8517 14.2046 11.9118C14.8392 12.049 15.3319 12.1863 15.6827 12.3235C16.0418 12.4608 16.2213 12.6667 16.2213 12.9412C16.2213 13.1042 16.1837 13.2414 16.1086 13.3529C16.0334 13.4559 15.9374 13.5417 15.8205 13.6103C15.7119 13.6703 15.5866 13.7175 15.4447 13.7518C15.3111 13.7776 15.1816 13.7904 15.0564 13.7904C14.881 13.7904 14.7098 13.769 14.5428 13.7261C14.3841 13.6832 14.2422 13.6189 14.1169 13.5331C13.9916 13.4387 13.8873 13.3229 13.8038 13.1857C13.7286 13.0398 13.691 12.8683 13.691 12.671Z" fill="#341C67"/>
<path d="M5.20738 9.70588V6.70868H6.92267C7.17575 6.70868 7.41945 6.72736 7.65378 6.76471C7.88811 6.80205 8.09432 6.87675 8.27241 6.9888C8.4505 7.0915 8.5911 7.2409 8.6942 7.43698C8.80668 7.63305 8.86292 7.88982 8.86292 8.20728C8.86292 8.52474 8.80668 8.78151 8.6942 8.97759C8.5911 9.17367 8.4505 9.32773 8.27241 9.43978C8.09432 9.54248 7.88811 9.61251 7.65378 9.64986C7.41945 9.68721 7.17575 9.70588 6.92267 9.70588H5.20738ZM3 5V15H5.20738V11.4146H7.52724C8.15524 11.4146 8.68951 11.3259 9.13005 11.1485C9.57059 10.9617 9.92677 10.719 10.1986 10.4202C10.4798 10.1214 10.6813 9.78058 10.8032 9.39776C10.9344 9.0056 11 8.60878 11 8.20728C11 7.79645 10.9344 7.39963 10.8032 7.01681C10.6813 6.63399 10.4798 6.29318 10.1986 5.9944C9.92677 5.69561 9.57059 5.45752 9.13005 5.28011C8.68951 5.09337 8.15524 5 7.52724 5H3Z" fill="#341C67"/>
</svg>
