<svg width="20" height="20" viewBox="0 0 20 20" fill="none" xmlns="http://www.w3.org/2000/svg">
<path fill-rule="evenodd" clip-rule="evenodd" d="M16.45 3.3235L13.3052 2H6.69555L3.55068 3.3235L1 6.1851L10.0011 18L19 6.1851L16.45 3.3235ZM17.9183 6.30452L15.5416 8.10553L13.651 5.40539L16.3118 4.16125L17.9183 6.30452ZM14.3925 8.63961H5.60822L7.40688 5.50613H12.5931L14.3925 8.63961ZM12.5847 2.58517L15.0154 3.61264L12.5749 4.74086H7.42581L4.98527 3.61264L7.38793 2.58517H12.5847ZM3.65942 4.16125L6.31954 5.40539L4.42828 8.10553L2.05297 6.30452L3.65942 4.16125ZM3.01965 8.07584L4.54193 9.24684L8.17995 15.0604L3.01965 8.07584ZM5.82007 9.59529H14.1806L10.0011 16.9008L5.82007 9.59529ZM11.7906 15.0604L15.4286 9.24684L16.9516 8.07584L11.7906 15.0604Z" fill="#341C67"/>
</svg>
